<svg width="56" height="56" viewBox="0 0 56 56" fill="none" xmlns="http://www.w3.org/2000/svg">
<path fill-rule="evenodd" clip-rule="evenodd" d="M1.80664 8.12898V14.4516H8.12922H14.4518V8.12898V1.8064H8.12922H1.80664V8.12898ZM16.2583 2.70962V3.61285H18.0647H19.8712V2.70962V1.8064H18.0647H16.2583V2.70962ZM27.097 2.70962V3.61285H26.1937H25.2905V4.51607V5.4193H23.4841H21.6776V7.22575V9.0322H20.7744H19.8712V8.12898V7.22575H18.9679H18.0647V6.32253V5.4193H17.1615H16.2583V8.12898V10.8387H17.1615H18.0647V11.7419V12.6451H17.1615H16.2583V13.5483V14.4516H17.1615H18.0647V15.3548V16.258H17.1615H16.2583V17.1612V18.0645H15.355H14.4518V17.1612V16.258H13.5486H12.6453V17.1612V18.0645H13.5486H14.4518V18.9677V19.8709H13.5486H12.6453V20.7741V21.6774H14.4518H16.2583V23.4838V25.2903H15.355H14.4518V24.387V23.4838H13.5486H12.6453V24.387V25.2903H13.5486H14.4518V26.1935V27.0967H13.5486H12.6453V27.9999V28.9032H11.7421H10.8389V29.8064V30.7096H9.93567H9.03245V29.8064V28.9032H8.12922H7.226V27.9999V27.0967H6.32277H5.41954V26.1935V25.2903H7.226H9.03245V26.1935V27.0967H9.93567H10.8389V26.1935V25.2903H9.93567H9.03245V24.387V23.4838H9.93567H10.8389V22.5806V21.6774H9.93567H9.03245V20.7741V19.8709H9.93567H10.8389V18.9677V18.0645H9.93567H9.03245V17.1612V16.258H5.41954H1.80664V17.1612V18.0645H4.51632H7.226V19.8709V21.6774H5.41954H3.61309V23.4838V25.2903H2.70987H1.80664V27.0967V28.9032H2.70987H3.61309V27.9999V27.0967H4.51632H5.41954V27.9999V28.9032H6.32277H7.226V29.8064V30.7096H8.12922H9.03245V31.6128V32.5161H7.226H5.41954V31.6128V30.7096H3.61309H1.80664V31.6128V32.5161H2.70987H3.61309V33.4193V34.3225H2.70987H1.80664V35.2257V36.129H2.70987H3.61309V35.2257V34.3225H4.51632H5.41954V36.129V37.9354H4.51632H3.61309V38.8387V39.7419H9.03245H14.4518V38.8387V37.9354H13.5486H12.6453V37.0322V36.129H15.355H18.0647V37.0322V37.9354H19.8712H21.6776V38.8387V39.7419H22.5808H23.4841V40.6451V41.5483H22.5808H21.6776V42.4516V43.3548H20.7744H19.8712V41.5483V39.7419H18.0647H16.2583V40.6451V41.5483H17.1615H18.0647V42.4516V43.3548H18.9679H19.8712V46.9677V50.5806H18.9679H18.0647V48.7741V46.9677H17.1615H16.2583V50.5806V54.1935H17.1615H18.0647V53.2903V52.387H18.9679H19.8712V53.2903V54.1935H20.7744H21.6776V53.2903V52.387H22.5808H23.4841V53.2903V54.1935H24.3873H25.2905V53.2903V52.387H24.3873H23.4841V50.5806V48.7741H24.3873H25.2905V49.6774V50.5806H26.1937H27.097V52.387V54.1935H28.9034H30.7099V53.2903V52.387H31.6131H32.5163V51.4838V50.5806H31.6131H30.7099V51.4838V52.387H29.8066H28.9034V51.4838V50.5806H28.0002H27.097V49.6774V48.7741H29.8066H32.5163V47.8709V46.9677H33.4195H34.3228V46.0645V45.1612H35.226H36.1292V44.258V43.3548H37.0324H37.9357V45.1612V46.9677H37.0324H36.1292V47.8709V48.7741H35.226H34.3228V51.4838V54.1935H37.0324H39.7421V52.387V50.5806H40.6453H41.5486V48.7741V46.9677H43.355H45.1615V47.8709V48.7741H44.2583H43.355V50.5806V52.387H44.2583H45.1615V50.5806V48.7741H46.9679H48.7744V49.6774V50.5806H47.8712H46.9679V52.387V54.1935H47.8712H48.7744V52.387V50.5806H49.6776H50.5808V52.387V54.1935H51.4841H52.3873V52.387V50.5806H53.2905H54.1937V46.9677V43.3548H53.2905H52.3873V42.4516V41.5483H53.2905H54.1937V40.6451V39.7419H52.3873H50.5808V37.0322V34.3225H51.4841H52.3873V31.6128V28.9032H53.2905H54.1937V27.0967V25.2903H52.3873H50.5808V24.387V23.4838H48.7744H46.9679V20.7741V18.0645H48.7744H50.5808V17.1612V16.258H47.8712H45.1615V17.1612V18.0645H43.355H41.5486V17.1612V16.258H40.6453H39.7421V17.1612V18.0645H37.9357H36.1292V15.3548V12.6451H37.0324H37.9357V13.5483V14.4516H38.8389H39.7421V11.7419V9.0322H38.8389H37.9357V8.12898V7.22575H38.8389H39.7421V4.51607V1.8064H37.0324H34.3228V2.70962V3.61285H36.1292H37.9357V5.4193V7.22575H37.0324H36.1292V6.32253V5.4193H35.226H34.3228V6.32253V7.22575H33.4195H32.5163V8.12898V9.0322H30.7099H28.9034V8.12898V7.22575H29.8066H30.7099V6.32253V5.4193H31.6131H32.5163V3.61285V1.8064H31.6131H30.7099V3.61285V5.4193H29.8066H28.9034V3.61285V1.8064H28.0002H27.097V2.70962ZM41.5486 8.12898V14.4516H47.8712H54.1937V8.12898V1.8064H47.8712H41.5486V8.12898ZM3.61309 8.12898V12.6451H8.12922H12.6453V8.12898V3.61285H8.12922H3.61309V8.12898ZM43.355 8.12898V12.6451H47.8712H52.3873V8.12898V3.61285H47.8712H43.355V8.12898ZM5.41954 8.12898V10.8387H8.12922H10.8389V8.12898V5.4193H8.12922H5.41954V8.12898ZM27.097 6.32253V7.22575H28.0002H28.9034V6.32253V5.4193H28.0002H27.097V6.32253ZM45.1615 8.12898V10.8387H47.8712H50.5808V8.12898V5.4193H47.8712H45.1615V8.12898ZM23.4841 9.0322V10.8387H21.6776H19.8712V11.7419V12.6451H18.9679H18.0647V13.5483V14.4516H18.9679H19.8712V15.3548V16.258H18.9679H18.0647V17.1612V18.0645H18.9679H19.8712V18.9677V19.8709H18.9679H18.0647V21.6774V23.4838H18.9679H19.8712V24.387V25.2903H20.7744H21.6776V23.4838V21.6774H23.4841H25.2905V20.7741V19.8709H27.097H28.9034V20.7741V21.6774H29.8066H30.7099V22.5806V23.4838H29.8066H28.9034V25.2903V27.0967H28.0002H27.097V26.1935V25.2903H26.1937H25.2905V24.387V23.4838H24.3873H23.4841V25.2903V27.0967H18.9679H14.4518V27.9999V28.9032H13.5486H12.6453V29.8064V30.7096H14.4518H16.2583V29.8064V28.9032H17.1615H18.0647V29.8064V30.7096H18.9679H19.8712V31.6128V32.5161H18.0647H16.2583V33.4193V34.3225H17.1615H18.0647V35.2257V36.129H19.8712H21.6776V37.0322V37.9354H22.5808H23.4841V37.0322V36.129H22.5808H21.6776V35.2257V34.3225H22.5808H23.4841V33.4193V32.5161H24.3873H25.2905V33.4193V34.3225H27.097H28.9034V33.4193V32.5161H29.8066H30.7099V35.2257V37.9354H29.8066H28.9034V37.0322V36.129H27.097H25.2905V37.0322V37.9354H26.1937H27.097V40.6451V43.3548H24.3873H21.6776V45.1612V46.9677H22.5808H23.4841V46.0645V45.1612H24.3873H25.2905V46.9677V48.7741H26.1937H27.097V46.9677V45.1612H30.7099H34.3228V44.258V43.3548H32.5163H30.7099V41.5483V39.7419H31.6131H32.5163V40.6451V41.5483H33.4195H34.3228V40.6451V39.7419H33.4195H32.5163V37.0322V34.3225H33.4195H34.3228V36.129V37.9354H35.226H36.1292V37.0322V36.129H37.0324H37.9357V37.0322V37.9354H38.8389H39.7421V37.0322V36.129H38.8389H37.9357V34.3225V32.5161H38.8389H39.7421V29.8064V27.0967H40.6453H41.5486V27.9999V28.9032H42.4518H43.355V27.9999V27.0967H42.4518H41.5486V26.1935V25.2903H43.355H45.1615V26.1935V27.0967H46.0647H46.9679V28.9032V30.7096H47.8712H48.7744V31.6128V32.5161H49.6776H50.5808V30.7096V28.9032H49.6776H48.7744V27.0967V25.2903H47.8712H46.9679V24.387V23.4838H43.355H39.7421V22.5806V21.6774H40.6453H41.5486V20.7741V19.8709H38.8389H36.1292V20.7741V21.6774H37.0324H37.9357V22.5806V23.4838H37.0324H36.1292V24.387V25.2903H34.3228H32.5163V26.1935V27.0967H31.6131H30.7099V25.2903V23.4838H32.5163H34.3228V22.5806V21.6774H32.5163H30.7099V19.8709V18.0645H28.9034H27.097V17.1612V16.258H29.8066H32.5163V15.3548V14.4516H33.4195H34.3228V13.5483V12.6451H33.4195H32.5163V13.5483V14.4516H31.6131H30.7099V12.6451V10.8387H29.8066H28.9034V12.6451V14.4516H28.0002H27.097V13.5483V12.6451H26.1937H25.2905V13.5483V14.4516H24.3873H23.4841V12.6451V10.8387H25.2905H27.097V9.93543V9.0322H26.1937H25.2905V8.12898V7.22575H24.3873H23.4841V9.0322ZM34.3228 8.12898V9.0322H33.4195H32.5163V9.93543V10.8387H34.3228H36.1292V9.0322V7.22575H35.226H34.3228V8.12898ZM19.8712 13.5483V14.4516H20.7744H21.6776V15.3548V16.258H22.5808H23.4841V15.3548V14.4516H22.5808H21.6776V13.5483V12.6451H20.7744H19.8712V13.5483ZM52.3873 18.0645V19.8709H50.5808H48.7744V20.7741V21.6774H50.5808H52.3873V22.5806V23.4838H53.2905H54.1937V22.5806V21.6774H53.2905H52.3873V20.7741V19.8709H53.2905H54.1937V18.0645V16.258H53.2905H52.3873V18.0645ZM36.1292 26.1935V27.0967H34.3228H32.5163V27.9999V28.9032H34.3228H36.1292V29.8064V30.7096H35.226H34.3228V32.5161V34.3225H35.226H36.1292V32.5161V30.7096H37.0324H37.9357V27.9999V25.2903H37.0324H36.1292V26.1935ZM23.4841 28.9032V30.7096H22.5808H21.6776V31.6128V32.5161H22.5808H23.4841V31.6128V30.7096H24.3873H25.2905V31.6128V32.5161H27.097H28.9034V30.7096V28.9032H28.0002H27.097V27.9999V27.0967H25.2905H23.4841V28.9032ZM25.2905 29.8064V30.7096H26.1937H27.097V29.8064V28.9032H26.1937H25.2905V29.8064ZM30.7099 31.6128V32.5161H31.6131H32.5163V31.6128V30.7096H31.6131H30.7099V31.6128ZM41.5486 33.4193V36.129H42.4518H43.355V37.0322V37.9354H46.0647H48.7744V36.129V34.3225H47.8712H46.9679V33.4193V32.5161H46.0647H45.1615V31.6128V30.7096H43.355H41.5486V33.4193ZM9.03245 33.4193V34.3225H9.93567H10.8389V33.4193V32.5161H9.93567H9.03245V33.4193ZM12.6453 33.4193V34.3225H13.5486H14.4518V33.4193V32.5161H13.5486H12.6453V33.4193ZM43.355 34.3225V36.129H44.2583H45.1615V34.3225V32.5161H44.2583H43.355V34.3225ZM7.226 37.0322V37.9354H8.12922H9.03245V37.0322V36.129H8.12922H7.226V37.0322ZM36.1292 40.6451V41.5483H37.0324H37.9357V40.6451V39.7419H37.0324H36.1292V40.6451ZM39.7421 42.4516V45.1612H42.4518H45.1615V42.4516V39.7419H42.4518H39.7421V42.4516ZM1.80664 47.8709V54.1935H8.12922H14.4518V47.8709V41.5483H8.12922H1.80664V47.8709ZM41.5486 42.4516V43.3548H42.4518H43.355V42.4516V41.5483H42.4518H41.5486V42.4516ZM48.7744 43.3548V45.1612H47.8712H46.9679V46.0645V46.9677H47.8712H48.7744V47.8709V48.7741H49.6776H50.5808V49.6774V50.5806H51.4841H52.3873V48.7741V46.9677H50.5808H48.7744V46.0645V45.1612H49.6776H50.5808V43.3548V41.5483H49.6776H48.7744V43.3548ZM3.61309 47.8709V52.387H8.12922H12.6453V47.8709V43.3548H8.12922H3.61309V47.8709ZM5.41954 47.8709V50.5806H8.12922H10.8389V47.8709V45.1612H8.12922H5.41954V47.8709ZM37.9357 49.6774V50.5806H37.0324H36.1292V51.4838V52.387H37.0324H37.9357V51.4838V50.5806H38.8389H39.7421V49.6774V48.7741H38.8389H37.9357V49.6774Z" fill="black"/>
</svg>
