<svg width="56" height="56" viewBox="0 0 56 56" fill="none" xmlns="http://www.w3.org/2000/svg">
<path fill-rule="evenodd" clip-rule="evenodd" d="M1.80664 8.12898V14.4516H8.12922H14.4518V8.12898V1.8064H8.12922H1.80664V8.12898ZM21.6776 2.70962V3.61285H19.8712H18.0647V4.51607V5.4193H19.8712H21.6776V4.51607V3.61285H23.4841H25.2905V4.51607V5.4193H24.3873H23.4841V7.22575V9.0322H24.3873H25.2905V7.22575V5.4193H26.1937H27.097V6.32253V7.22575H29.8066H32.5163V8.12898V9.0322H31.6131H30.7099V9.93543V10.8387H31.6131H32.5163V11.7419V12.6451H31.6131H30.7099V14.4516V16.258H31.6131H32.5163V18.0645V19.8709H31.6131H30.7099V18.9677V18.0645H29.8066H28.9034V15.3548V12.6451H28.0002H27.097V14.4516V16.258H26.1937H25.2905V17.1612V18.0645H24.3873H23.4841V16.258V14.4516H24.3873H25.2905V12.6451V10.8387H23.4841H21.6776V11.7419V12.6451H20.7744H19.8712V14.4516V16.258H18.9679H18.0647V18.0645V19.8709H18.9679H19.8712V20.7741V21.6774H17.1615H14.4518V20.7741V19.8709H13.5486H12.6453V20.7741V21.6774H13.5486H14.4518V22.5806V23.4838H13.5486H12.6453V24.387V25.2903H14.4518H16.2583V26.1935V27.0967H18.0647H19.8712V27.9999V28.9032H20.7744H21.6776V30.7096V32.5161H20.7744H19.8712V31.6128V30.7096H18.9679H18.0647V31.6128V32.5161H17.1615H16.2583V33.4193V34.3225H13.5486H10.8389V33.4193V32.5161H12.6453H14.4518V31.6128V30.7096H13.5486H12.6453V29.8064V28.9032H13.5486H14.4518V27.9999V27.0967H13.5486H12.6453V27.9999V28.9032H11.7421H10.8389V29.8064V30.7096H9.93567H9.03245V29.8064V28.9032H7.226H5.41954V29.8064V30.7096H3.61309H1.80664V35.2257V39.7419H2.70987H3.61309V37.9354V36.129H4.51632H5.41954V37.9354V39.7419H6.32277H7.226V38.8387V37.9354H8.12922H9.03245V38.8387V39.7419H9.93567H10.8389V38.8387V37.9354H11.7421H12.6453V38.8387V39.7419H13.5486H14.4518V38.8387V37.9354H13.5486H12.6453V37.0322V36.129H16.2583H19.8712V35.2257V34.3225H20.7744H21.6776V35.2257V36.129H22.5808H23.4841V37.9354V39.7419H24.3873H25.2905V38.8387V37.9354H26.1937H27.097V39.7419V41.5483H28.0002H28.9034V42.4516V43.3548H28.0002H27.097V44.258V45.1612H26.1937H25.2905V46.0645V46.9677H24.3873H23.4841V47.8709V48.7741H24.3873H25.2905V49.6774V50.5806H24.3873H23.4841V52.387V54.1935H24.3873H25.2905V53.2903V52.387H26.1937H27.097V53.2903V54.1935H32.5163H37.9357V53.2903V52.387H33.4195H28.9034V51.4838V50.5806H29.8066H30.7099V48.7741V46.9677H32.5163H34.3228V47.8709V48.7741H33.4195H32.5163V49.6774V50.5806H34.3228H36.1292V49.6774V48.7741H37.0324H37.9357V47.8709V46.9677H38.8389H39.7421V47.8709V48.7741H40.6453H41.5486V49.6774V50.5806H40.6453H39.7421V52.387V54.1935H40.6453H41.5486V53.2903V52.387H42.4518H43.355V53.2903V54.1935H46.9679H50.5808V52.387V50.5806H51.4841H52.3873V51.4838V52.387H53.2905H54.1937V51.4838V50.5806H53.2905H52.3873V49.6774V48.7741H53.2905H54.1937V47.8709V46.9677H53.2905H52.3873V46.0645V45.1612H51.4841H50.5808V46.0645V46.9677H49.6776H48.7744V46.0645V45.1612H47.8712H46.9679V44.258V43.3548H48.7744H50.5808V42.4516V41.5483H49.6776H48.7744V40.6451V39.7419H51.4841H54.1937V38.8387V37.9354H51.4841H48.7744V38.8387V39.7419H47.8712H46.9679V37.9354V36.129H47.8712H48.7744V35.2257V34.3225H50.5808H52.3873V35.2257V36.129H53.2905H54.1937V34.3225V32.5161H52.3873H50.5808V29.8064V27.0967H52.3873H54.1937V25.2903V23.4838H53.2905H52.3873V24.387V25.2903H51.4841H50.5808V26.1935V27.0967H48.7744H46.9679V26.1935V25.2903H46.0647H45.1615V23.4838V21.6774H44.2583H43.355V20.7741V19.8709H45.1615H46.9679V18.9677V18.0645H47.8712H48.7744V18.9677V19.8709H50.5808H52.3873V18.9677V18.0645H50.5808H48.7744V17.1612V16.258H46.9679H45.1615V17.1612V18.0645H44.2583H43.355V18.9677V19.8709H40.6453H37.9357V18.0645V16.258H38.8389H39.7421V13.5483V10.8387H38.8389H37.9357V9.93543V9.0322H38.8389H39.7421V7.22575V5.4193H37.9357H36.1292V3.61285V1.8064H34.3228H32.5163V3.61285V5.4193H29.8066H27.097V4.51607V3.61285H28.9034H30.7099V2.70962V1.8064H26.1937H21.6776V2.70962ZM41.5486 8.12898V14.4516H47.8712H54.1937V8.12898V1.8064H47.8712H41.5486V8.12898ZM3.61309 8.12898V12.6451H8.12922H12.6453V8.12898V3.61285H8.12922H3.61309V8.12898ZM43.355 8.12898V12.6451H47.8712H52.3873V8.12898V3.61285H47.8712H43.355V8.12898ZM5.41954 8.12898V10.8387H8.12922H10.8389V8.12898V5.4193H8.12922H5.41954V8.12898ZM32.5163 6.32253V7.22575H33.4195H34.3228V8.12898V9.0322H35.226H36.1292V7.22575V5.4193H34.3228H32.5163V6.32253ZM45.1615 8.12898V10.8387H47.8712H50.5808V8.12898V5.4193H47.8712H45.1615V8.12898ZM16.2583 9.0322V10.8387H18.0647H19.8712V9.93543V9.0322H18.9679H18.0647V8.12898V7.22575H17.1615H16.2583V9.0322ZM27.097 9.93543V10.8387H28.0002H28.9034V9.93543V9.0322H28.0002H27.097V9.93543ZM34.3228 11.7419V12.6451H33.4195H32.5163V14.4516V16.258H33.4195H34.3228V17.1612V18.0645H35.226H36.1292V17.1612V16.258H37.0324H37.9357V13.5483V10.8387H36.1292H34.3228V11.7419ZM16.2583 13.5483V14.4516H17.1615H18.0647V13.5483V12.6451H17.1615H16.2583V13.5483ZM21.6776 13.5483V14.4516H22.5808H23.4841V13.5483V12.6451H22.5808H21.6776V13.5483ZM34.3228 13.5483V14.4516H35.226H36.1292V13.5483V12.6451H35.226H34.3228V13.5483ZM1.80664 18.9677V21.6774H2.70987H3.61309V22.5806V23.4838H2.70987H1.80664V24.387V25.2903H2.70987H3.61309V26.1935V27.0967H2.70987H1.80664V27.9999V28.9032H2.70987H3.61309V27.9999V27.0967H4.51632H5.41954V26.1935V25.2903H4.51632H3.61309V24.387V23.4838H5.41954H7.226V24.387V25.2903H8.12922H9.03245V26.1935V27.0967H9.93567H10.8389V26.1935V25.2903H9.93567H9.03245V24.387V23.4838H8.12922H7.226V21.6774V19.8709H9.03245H10.8389V18.9677V18.0645H13.5486H16.2583V17.1612V16.258H13.5486H10.8389V17.1612V18.0645H8.12922H5.41954V17.1612V16.258H3.61309H1.80664V18.9677ZM19.8712 18.0645V19.8709H20.7744H21.6776V20.7741V21.6774H20.7744H19.8712V24.387V27.0967H22.5808H25.2905V26.1935V25.2903H26.1937H27.097V26.1935V27.0967H28.9034H30.7099V25.2903V23.4838H31.6131H32.5163V24.387V25.2903H33.4195H34.3228V24.387V23.4838H37.0324H39.7421V25.2903V27.0967H37.0324H34.3228V27.9999V28.9032H32.5163H30.7099V29.8064V30.7096H32.5163H34.3228V31.6128V32.5161H33.4195H32.5163V33.4193V34.3225H34.3228H36.1292V33.4193V32.5161H37.0324H37.9357V31.6128V30.7096H37.0324H36.1292V29.8064V28.9032H37.9357H39.7421V30.7096V32.5161H41.5486H43.355V30.7096V28.9032H42.4518H41.5486V26.1935V23.4838H42.4518H43.355V22.5806V21.6774H42.4518H41.5486V22.5806V23.4838H40.6453H39.7421V22.5806V21.6774H38.8389H37.9357V20.7741V19.8709H35.226H32.5163V20.7741V21.6774H30.7099H28.9034V23.4838V25.2903H28.0002H27.097V23.4838V21.6774H26.1937H25.2905V20.7741V19.8709H26.1937H27.097V18.9677V18.0645H26.1937H25.2905V18.9677V19.8709H24.3873H23.4841V18.9677V18.0645H22.5808H21.6776V17.1612V16.258H20.7744H19.8712V18.0645ZM3.61309 18.9677V19.8709H4.51632H5.41954V18.9677V18.0645H4.51632H3.61309V18.9677ZM23.4841 22.5806V23.4838H22.5808H21.6776V24.387V25.2903H23.4841H25.2905V23.4838V21.6774H24.3873H23.4841V22.5806ZM46.9679 22.5806V23.4838H47.8712H48.7744V22.5806V21.6774H47.8712H46.9679V22.5806ZM43.355 26.1935V27.0967H44.2583H45.1615V27.9999V28.9032H46.0647H46.9679V29.8064V30.7096H46.0647H45.1615V31.6128V32.5161H46.0647H46.9679V33.4193V34.3225H45.1615H43.355V35.2257V36.129H45.1615H46.9679V35.2257V34.3225H47.8712H48.7744V33.4193V32.5161H47.8712H46.9679V31.6128V30.7096H47.8712H48.7744V29.8064V28.9032H47.8712H46.9679V27.9999V27.0967H46.0647H45.1615V26.1935V25.2903H44.2583H43.355V26.1935ZM23.4841 30.7096V32.5161H22.5808H21.6776V33.4193V34.3225H22.5808H23.4841V35.2257V36.129H25.2905H27.097V37.0322V37.9354H28.0002H28.9034V38.8387V39.7419H29.8066H30.7099V40.6451V41.5483H31.6131H32.5163V39.7419V37.9354H33.4195H34.3228V37.0322V36.129H33.4195H32.5163V37.0322V37.9354H30.7099H28.9034V33.4193V28.9032H26.1937H23.4841V30.7096ZM52.3873 29.8064V30.7096H53.2905H54.1937V29.8064V28.9032H53.2905H52.3873V29.8064ZM5.41954 32.5161V34.3225H6.32277H7.226V35.2257V36.129H8.12922H9.03245V37.0322V37.9354H9.93567H10.8389V37.0322V36.129H9.93567H9.03245V35.2257V34.3225H8.12922H7.226V33.4193V32.5161H8.12922H9.03245V31.6128V30.7096H7.226H5.41954V32.5161ZM23.4841 33.4193V34.3225H25.2905H27.097V33.4193V32.5161H25.2905H23.4841V33.4193ZM37.9357 35.2257V36.129H38.8389H39.7421V35.2257V34.3225H38.8389H37.9357V35.2257ZM16.2583 41.5483V45.1612H17.1615H18.0647V44.258V43.3548H18.9679H19.8712V42.4516V41.5483H18.9679H18.0647V39.7419V37.9354H17.1615H16.2583V41.5483ZM19.8712 38.8387V39.7419H20.7744H21.6776V38.8387V37.9354H20.7744H19.8712V38.8387ZM36.1292 39.7419V41.5483H35.226H34.3228V42.4516V43.3548H33.4195H32.5163V44.258V45.1612H33.4195H34.3228V46.0645V46.9677H35.226H36.1292V44.258V41.5483H37.0324H37.9357V39.7419V37.9354H37.0324H36.1292V39.7419ZM39.7421 42.4516V45.1612H42.4518H45.1615V42.4516V39.7419H42.4518H39.7421V42.4516ZM1.80664 47.8709V54.1935H8.12922H14.4518V47.8709V41.5483H8.12922H1.80664V47.8709ZM21.6776 43.3548V45.1612H22.5808H23.4841V44.258V43.3548H24.3873H25.2905V42.4516V41.5483H23.4841H21.6776V43.3548ZM41.5486 42.4516V43.3548H42.4518H43.355V42.4516V41.5483H42.4518H41.5486V42.4516ZM3.61309 47.8709V52.387H8.12922H12.6453V47.8709V43.3548H8.12922H3.61309V47.8709ZM28.9034 45.1612V46.9677H29.8066H30.7099V45.1612V43.3548H29.8066H28.9034V45.1612ZM5.41954 47.8709V50.5806H8.12922H10.8389V47.8709V45.1612H8.12922H5.41954V47.8709ZM18.0647 48.7741V50.5806H17.1615H16.2583V52.387V54.1935H18.0647H19.8712V53.2903V52.387H20.7744H21.6776V51.4838V50.5806H20.7744H19.8712V49.6774V48.7741H20.7744H21.6776V47.8709V46.9677H19.8712H18.0647V48.7741ZM41.5486 47.8709V48.7741H42.4518H43.355V47.8709V46.9677H42.4518H41.5486V47.8709ZM45.1615 47.8709V48.7741H46.0647H46.9679V47.8709V46.9677H46.0647H45.1615V47.8709ZM50.5808 47.8709V48.7741H51.4841H52.3873V47.8709V46.9677H51.4841H50.5808V47.8709ZM45.1615 51.4838V52.387H46.0647H46.9679V51.4838V50.5806H46.0647H45.1615V51.4838Z" fill="black"/>
</svg>
