<svg width="56" height="56" viewBox="0 0 56 56" fill="none" xmlns="http://www.w3.org/2000/svg">
<path fill-rule="evenodd" clip-rule="evenodd" d="M1.80664 8.12898V14.4516H8.12922H14.4518V8.12898V1.8064H8.12922H1.80664V8.12898ZM18.0647 2.70962V3.61285H17.1615H16.2583V5.4193V7.22575H17.1615H18.0647V6.32253V5.4193H18.9679H19.8712V3.61285V1.8064H18.9679H18.0647V2.70962ZM21.6776 4.51607V7.22575H22.5808H23.4841V8.12898V9.0322H21.6776H19.8712V9.93543V10.8387H18.9679H18.0647V9.93543V9.0322H17.1615H16.2583V12.6451V16.258H14.4518H12.6453V17.1612V18.0645H13.5486H14.4518V18.9677V19.8709H13.5486H12.6453V20.7741V21.6774H10.8389H9.03245V20.7741V19.8709H9.93567H10.8389V18.9677V18.0645H9.93567H9.03245V17.1612V16.258H8.12922H7.226V17.1612V18.0645H8.12922H9.03245V18.9677V19.8709H7.226H5.41954V18.0645V16.258H3.61309H1.80664V17.1612V18.0645H2.70987H3.61309V18.9677V19.8709H4.51632H5.41954V20.7741V21.6774H3.61309H1.80664V22.5806V23.4838H2.70987H3.61309V24.387V25.2903H2.70987H1.80664V26.1935V27.0967H2.70987H3.61309V26.1935V25.2903H5.41954H7.226V26.1935V27.0967H6.32277H5.41954V28.9032V30.7096H4.51632H3.61309V29.8064V28.9032H2.70987H1.80664V29.8064V30.7096H2.70987H3.61309V32.5161V34.3225H2.70987H1.80664V35.2257V36.129H2.70987H3.61309V35.2257V34.3225H4.51632H5.41954V35.2257V36.129H6.32277H7.226V37.0322V37.9354H6.32277H5.41954V38.8387V39.7419H6.32277H7.226V38.8387V37.9354H8.12922H9.03245V38.8387V39.7419H9.93567H10.8389V37.0322V34.3225H11.7421H12.6453V35.2257V36.129H14.4518H16.2583V35.2257V34.3225H14.4518H12.6453V33.4193V32.5161H13.5486H14.4518V31.6128V30.7096H15.355H16.2583V31.6128V32.5161H17.1615H18.0647V31.6128V30.7096H17.1615H16.2583V28.9032V27.0967H17.1615H18.0647V27.9999V28.9032H20.7744H23.4841V29.8064V30.7096H22.5808H21.6776V32.5161V34.3225H19.8712H18.0647V35.2257V36.129H18.9679H19.8712V37.0322V37.9354H18.9679H18.0647V38.8387V39.7419H17.1615H16.2583V41.5483V43.3548H17.1615H18.0647V44.258V45.1612H18.9679H19.8712V46.0645V46.9677H20.7744H21.6776V47.8709V48.7741H20.7744H19.8712V49.6774V50.5806H21.6776H23.4841V52.387V54.1935H24.3873H25.2905V53.2903V52.387H27.097H28.9034V53.2903V54.1935H31.6131H34.3228V53.2903V52.387H36.1292H37.9357V53.2903V54.1935H38.8389H39.7421V52.387V50.5806H40.6453H41.5486V49.6774V48.7741H42.4518H43.355V47.8709V46.9677H44.2583H45.1615V49.6774V52.387H44.2583H43.355V53.2903V54.1935H45.1615H46.9679V52.387V50.5806H48.7744H50.5808V52.387V54.1935H51.4841H52.3873V52.387V50.5806H53.2905H54.1937V49.6774V48.7741H53.2905H52.3873V49.6774V50.5806H51.4841H50.5808V48.7741V46.9677H52.3873H54.1937V46.0645V45.1612H53.2905H52.3873V43.3548V41.5483H53.2905H54.1937V40.6451V39.7419H52.3873H50.5808V38.8387V37.9354H52.3873H54.1937V35.2257V32.5161H53.2905H52.3873V30.7096V28.9032H53.2905H54.1937V27.9999V27.0967H50.5808H46.9679V28.9032V30.7096H47.8712H48.7744V29.8064V28.9032H49.6776H50.5808V30.7096V32.5161H51.4841H52.3873V33.4193V34.3225H51.4841H50.5808V36.129V37.9354H49.6776H48.7744V39.7419V41.5483H49.6776H50.5808V42.4516V43.3548H48.7744H46.9679V40.6451V37.9354H43.355H39.7421V37.0322V36.129H37.9357H36.1292V34.3225V32.5161H37.0324H37.9357V31.6128V30.7096H37.0324H36.1292V29.8064V28.9032H34.3228H32.5163V27.9999V27.0967H31.6131H30.7099V27.9999V28.9032H29.8066H28.9034V27.9999V27.0967H28.0002H27.097V26.1935V25.2903H31.6131H36.1292V26.1935V27.0967H37.9357H39.7421V29.8064V32.5161H40.6453H41.5486V34.3225V36.129H43.355H45.1615V33.4193V30.7096H44.2583H43.355V29.8064V28.9032H42.4518H41.5486V27.0967V25.2903H42.4518H43.355V26.1935V27.0967H44.2583H45.1615V26.1935V25.2903H44.2583H43.355V24.387V23.4838H45.1615H46.9679V24.387V25.2903H47.8712H48.7744V24.387V23.4838H49.6776H50.5808V24.387V25.2903H52.3873H54.1937V24.387V23.4838H53.2905H52.3873V21.6774V19.8709H53.2905H54.1937V18.9677V18.0645H53.2905H52.3873V17.1612V16.258H50.5808H48.7744V17.1612V18.0645H47.8712H46.9679V17.1612V16.258H44.2583H41.5486V17.1612V18.0645H39.7421H37.9357V17.1612V16.258H38.8389H39.7421V14.4516V12.6451H38.8389H37.9357V11.7419V10.8387H38.8389H39.7421V9.93543V9.0322H38.8389H37.9357V9.93543V10.8387H37.0324H36.1292V9.0322V7.22575H37.9357H39.7421V6.32253V5.4193H37.9357H36.1292V6.32253V7.22575H35.226H34.3228V6.32253V5.4193H32.5163H30.7099V4.51607V3.61285H31.6131H32.5163V2.70962V1.8064H30.7099H28.9034V2.70962V3.61285H27.097H25.2905V2.70962V1.8064H23.4841H21.6776V4.51607ZM34.3228 2.70962V3.61285H36.1292H37.9357V2.70962V1.8064H36.1292H34.3228V2.70962ZM41.5486 8.12898V14.4516H47.8712H54.1937V8.12898V1.8064H47.8712H41.5486V8.12898ZM3.61309 8.12898V12.6451H8.12922H12.6453V8.12898V3.61285H8.12922H3.61309V8.12898ZM23.4841 4.51607V5.4193H24.3873H25.2905V7.22575V9.0322H24.3873H23.4841V9.93543V10.8387H21.6776H19.8712V11.7419V12.6451H18.9679H18.0647V13.5483V14.4516H18.9679H19.8712V15.3548V16.258H18.0647H16.2583V17.1612V18.0645H17.1615H18.0647V18.9677V19.8709H19.8712H21.6776V20.7741V21.6774H18.9679H16.2583V20.7741V19.8709H15.355H14.4518V20.7741V21.6774H13.5486H12.6453V22.5806V23.4838H13.5486H14.4518V24.387V25.2903H11.7421H9.03245V24.387V23.4838H8.12922H7.226V22.5806V21.6774H6.32277H5.41954V22.5806V23.4838H6.32277H7.226V24.387V25.2903H8.12922H9.03245V26.1935V27.0967H11.7421H14.4518V26.1935V25.2903H16.2583H18.0647V26.1935V27.0967H18.9679H19.8712V26.1935V25.2903H20.7744H21.6776V26.1935V27.0967H22.5808H23.4841V22.5806V18.0645H21.6776H19.8712V17.1612V16.258H20.7744H21.6776V15.3548V14.4516H22.5808H23.4841V12.6451V10.8387H24.3873H25.2905V15.3548V19.8709H27.097H28.9034V20.7741V21.6774H28.0002H27.097V22.5806V23.4838H28.0002H28.9034V22.5806V21.6774H29.8066H30.7099V20.7741V19.8709H31.6131H32.5163V21.6774V23.4838H33.4195H34.3228V22.5806V21.6774H35.226H36.1292V20.7741V19.8709H37.0324H37.9357V20.7741V21.6774H38.8389H39.7421V22.5806V23.4838H41.5486H43.355V22.5806V21.6774H45.1615H46.9679V22.5806V23.4838H47.8712H48.7744V22.5806V21.6774H47.8712H46.9679V19.8709V18.0645H45.1615H43.355V19.8709V21.6774H42.4518H41.5486V20.7741V19.8709H39.7421H37.9357V18.9677V18.0645H37.0324H36.1292V17.1612V16.258H37.0324H37.9357V14.4516V12.6451H37.0324H36.1292V14.4516V16.258H33.4195H30.7099V14.4516V12.6451H31.6131H32.5163V13.5483V14.4516H33.4195H34.3228V13.5483V12.6451H33.4195H32.5163V11.7419V10.8387H31.6131H30.7099V9.93543V9.0322H32.5163H34.3228V8.12898V7.22575H31.6131H28.9034V9.0322V10.8387H29.8066H30.7099V11.7419V12.6451H29.8066H28.9034V15.3548V18.0645H28.0002H27.097V14.4516V10.8387H26.1937H25.2905V9.93543V9.0322H26.1937H27.097V7.22575V5.4193H26.1937H25.2905V4.51607V3.61285H24.3873H23.4841V4.51607ZM43.355 8.12898V12.6451H47.8712H52.3873V8.12898V3.61285H47.8712H43.355V8.12898ZM5.41954 8.12898V10.8387H8.12922H10.8389V8.12898V5.4193H8.12922H5.41954V8.12898ZM45.1615 8.12898V10.8387H47.8712H50.5808V8.12898V5.4193H47.8712H45.1615V8.12898ZM19.8712 13.5483V14.4516H20.7744H21.6776V13.5483V12.6451H20.7744H19.8712V13.5483ZM48.7744 18.9677V19.8709H50.5808H52.3873V18.9677V18.0645H50.5808H48.7744V18.9677ZM36.1292 24.387V25.2903H37.0324H37.9357V24.387V23.4838H37.0324H36.1292V24.387ZM7.226 29.8064V30.7096H6.32277H5.41954V31.6128V32.5161H6.32277H7.226V34.3225V36.129H8.12922H9.03245V35.2257V34.3225H9.93567H10.8389V32.5161V30.7096H12.6453H14.4518V29.8064V28.9032H12.6453H10.8389V29.8064V30.7096H9.93567H9.03245V29.8064V28.9032H8.12922H7.226V29.8064ZM30.7099 29.8064V30.7096H31.6131H32.5163V29.8064V28.9032H31.6131H30.7099V29.8064ZM25.2905 32.5161V34.3225H23.4841H21.6776V35.2257V36.129H22.5808H23.4841V37.0322V37.9354H22.5808H21.6776V40.6451V43.3548H20.7744H19.8712V41.5483V39.7419H18.9679H18.0647V41.5483V43.3548H18.9679H19.8712V44.258V45.1612H20.7744H21.6776V44.258V43.3548H23.4841H25.2905V42.4516V41.5483H27.097H28.9034V42.4516V43.3548H28.0002H27.097V46.0645V48.7741H25.2905H23.4841V49.6774V50.5806H25.2905H27.097V49.6774V48.7741H28.0002H28.9034V49.6774V50.5806H29.8066H30.7099V51.4838V52.387H31.6131H32.5163V51.4838V50.5806H33.4195H34.3228V49.6774V48.7741H35.226H36.1292V49.6774V50.5806H37.9357H39.7421V49.6774V48.7741H40.6453H41.5486V47.8709V46.9677H39.7421H37.9357V44.258V41.5483H37.0324H36.1292V40.6451V39.7419H37.0324H37.9357V38.8387V37.9354H37.0324H36.1292V37.0322V36.129H35.226H34.3228V34.3225V32.5161H35.226H36.1292V31.6128V30.7096H35.226H34.3228V31.6128V32.5161H33.4195H32.5163V33.4193V34.3225H30.7099H28.9034V33.4193V32.5161H28.0002H27.097V31.6128V30.7096H26.1937H25.2905V32.5161ZM41.5486 31.6128V32.5161H42.4518H43.355V31.6128V30.7096H42.4518H41.5486V31.6128ZM46.9679 33.4193V34.3225H47.8712H48.7744V33.4193V32.5161H47.8712H46.9679V33.4193ZM25.2905 35.2257V36.129H26.1937H27.097V37.0322V37.9354H25.2905H23.4841V39.7419V41.5483H24.3873H25.2905V40.6451V39.7419H27.097H28.9034V40.6451V41.5483H29.8066H30.7099V43.3548V45.1612H31.6131H32.5163V44.258V43.3548H33.4195H34.3228V44.258V45.1612H35.226H36.1292V44.258V43.3548H35.226H34.3228V42.4516V41.5483H33.4195H32.5163V40.6451V39.7419H30.7099H28.9034V38.8387V37.9354H31.6131H34.3228V38.8387V39.7419H35.226H36.1292V38.8387V37.9354H35.226H34.3228V37.0322V36.129H30.7099H27.097V35.2257V34.3225H26.1937H25.2905V35.2257ZM1.80664 38.8387V39.7419H2.70987H3.61309V38.8387V37.9354H2.70987H1.80664V38.8387ZM12.6453 38.8387V39.7419H13.5486H14.4518V38.8387V37.9354H13.5486H12.6453V38.8387ZM39.7421 42.4516V45.1612H42.4518H45.1615V42.4516V39.7419H42.4518H39.7421V42.4516ZM1.80664 47.8709V54.1935H8.12922H14.4518V47.8709V41.5483H8.12922H1.80664V47.8709ZM41.5486 42.4516V43.3548H42.4518H43.355V42.4516V41.5483H42.4518H41.5486V42.4516ZM3.61309 47.8709V52.387H8.12922H12.6453V47.8709V43.3548H8.12922H3.61309V47.8709ZM5.41954 47.8709V50.5806H8.12922H10.8389V47.8709V45.1612H8.12922H5.41954V47.8709ZM23.4841 46.0645V46.9677H24.3873H25.2905V46.0645V45.1612H24.3873H23.4841V46.0645ZM46.9679 46.0645V46.9677H48.7744H50.5808V46.0645V45.1612H48.7744H46.9679V46.0645ZM16.2583 47.8709V48.7741H17.1615H18.0647V47.8709V46.9677H17.1615H16.2583V47.8709ZM32.5163 47.8709V48.7741H31.6131H30.7099V49.6774V50.5806H31.6131H32.5163V49.6774V48.7741H33.4195H34.3228V47.8709V46.9677H33.4195H32.5163V47.8709ZM36.1292 47.8709V48.7741H37.0324H37.9357V47.8709V46.9677H37.0324H36.1292V47.8709ZM16.2583 52.387V54.1935H17.1615H18.0647V52.387V50.5806H17.1615H16.2583V52.387ZM19.8712 53.2903V54.1935H20.7744H21.6776V53.2903V52.387H20.7744H19.8712V53.2903Z" fill="black"/>
</svg>
