<svg width="56" height="56" viewBox="0 0 56 56" fill="none" xmlns="http://www.w3.org/2000/svg">
<path fill-rule="evenodd" clip-rule="evenodd" d="M1.80664 8.12898V14.4516H8.12922H14.4518V8.12898V1.8064H8.12922H1.80664V8.12898ZM18.0647 2.70962V3.61285H18.9679H19.8712V4.51607V5.4193H18.0647H16.2583V6.32253V7.22575H17.1615H18.0647V8.12898V9.0322H18.9679H19.8712V9.93543V10.8387H18.9679H18.0647V11.7419V12.6451H17.1615H16.2583V14.4516V16.258H12.6453H9.03245V17.1612V18.0645H8.12922H7.226V17.1612V16.258H4.51632H1.80664V19.8709V23.4838H2.70987H3.61309V24.387V25.2903H2.70987H1.80664V26.1935V27.0967H3.61309H5.41954V28.9032V30.7096H4.51632H3.61309V29.8064V28.9032H2.70987H1.80664V29.8064V30.7096H2.70987H3.61309V32.5161V34.3225H2.70987H1.80664V35.2257V36.129H2.70987H3.61309V37.0322V37.9354H2.70987H1.80664V38.8387V39.7419H2.70987H3.61309V38.8387V37.9354H4.51632H5.41954V37.0322V36.129H6.32277H7.226V34.3225V32.5161H6.32277H5.41954V31.6128V30.7096H6.32277H7.226V29.8064V28.9032H8.12922H9.03245V30.7096V32.5161H9.93567H10.8389V30.7096V28.9032H9.93567H9.03245V27.9999V27.0967H8.12922H7.226V25.2903V23.4838H9.93567H12.6453V24.387V25.2903H11.7421H10.8389V26.1935V27.0967H11.7421H12.6453V27.9999V28.9032H18.0647H23.4841V29.8064V30.7096H22.5808H21.6776V31.6128V32.5161H20.7744H19.8712V31.6128V30.7096H18.0647H16.2583V31.6128V32.5161H15.355H14.4518V31.6128V30.7096H13.5486H12.6453V31.6128V32.5161H13.5486H14.4518V33.4193V34.3225H12.6453H10.8389V35.2257V36.129H9.93567H9.03245V37.0322V37.9354H8.12922H7.226V38.8387V39.7419H8.12922H9.03245V38.8387V37.9354H9.93567H10.8389V38.8387V39.7419H13.5486H16.2583V43.3548V46.9677H17.1615H18.0647V47.8709V48.7741H17.1615H16.2583V51.4838V54.1935H17.1615H18.0647V51.4838V48.7741H18.9679H19.8712V49.6774V50.5806H20.7744H21.6776V51.4838V52.387H20.7744H19.8712V53.2903V54.1935H20.7744H21.6776V53.2903V52.387H22.5808H23.4841V53.2903V54.1935H24.3873H25.2905V53.2903V52.387H24.3873H23.4841V51.4838V50.5806H22.5808H21.6776V49.6774V48.7741H22.5808H23.4841V46.9677V45.1612H25.2905H27.097V46.9677V48.7741H26.1937H25.2905V49.6774V50.5806H26.1937H27.097V49.6774V48.7741H28.9034H30.7099V49.6774V50.5806H29.8066H28.9034V51.4838V52.387H30.7099H32.5163V53.2903V54.1935H36.1292H39.7421V52.387V50.5806H40.6453H41.5486V49.6774V48.7741H39.7421H37.9357V49.6774V50.5806H37.0324H36.1292V49.6774V48.7741H35.226H34.3228V47.8709V46.9677H31.6131H28.9034V46.0645V45.1612H29.8066H30.7099V44.258V43.3548H31.6131H32.5163V44.258V45.1612H34.3228H36.1292V44.258V43.3548H37.0324H37.9357V45.1612V46.9677H41.5486H45.1615V47.8709V48.7741H44.2583H43.355V49.6774V50.5806H44.2583H45.1615V51.4838V52.387H43.355H41.5486V53.2903V54.1935H45.1615H48.7744V53.2903V52.387H47.8712H46.9679V51.4838V50.5806H47.8712H48.7744V49.6774V48.7741H50.5808H52.3873V49.6774V50.5806H51.4841H50.5808V52.387V54.1935H52.3873H54.1937V53.2903V52.387H53.2905H52.3873V51.4838V50.5806H53.2905H54.1937V48.7741V46.9677H51.4841H48.7744V47.8709V48.7741H47.8712H46.9679V46.9677V45.1612H47.8712H48.7744V43.3548V41.5483H49.6776H50.5808V43.3548V45.1612H51.4841H52.3873V44.258V43.3548H53.2905H54.1937V41.5483V39.7419H51.4841H48.7744V40.6451V41.5483H47.8712H46.9679V39.7419V37.9354H47.8712H48.7744V37.0322V36.129H47.8712H46.9679V37.0322V37.9354H45.1615H43.355V37.0322V36.129H44.2583H45.1615V35.2257V34.3225H44.2583H43.355V33.4193V32.5161H44.2583H45.1615V31.6128V30.7096H44.2583H43.355V29.8064V28.9032H44.2583H45.1615V27.0967V25.2903H44.2583H43.355V24.387V23.4838H40.6453H37.9357V22.5806V21.6774H34.3228H30.7099V22.5806V23.4838H28.9034H27.097V22.5806V21.6774H28.0002H28.9034V20.7741V19.8709H30.7099H32.5163V18.9677V18.0645H33.4195H34.3228V17.1612V16.258H35.226H36.1292V17.1612V18.0645H37.0324H37.9357V18.9677V19.8709H40.6453H43.355V18.0645V16.258H41.5486H39.7421V12.6451V9.0322H37.9357H36.1292V8.12898V7.22575H37.0324H37.9357V4.51607V1.8064H36.1292H34.3228V2.70962V3.61285H35.226H36.1292V5.4193V7.22575H35.226H34.3228V8.12898V9.0322H33.4195H32.5163V9.93543V10.8387H33.4195H34.3228V12.6451V14.4516H33.4195H32.5163V13.5483V12.6451H31.6131H30.7099V11.7419V10.8387H29.8066H28.9034V9.0322V7.22575H29.8066H30.7099V5.4193V3.61285H31.6131H32.5163V2.70962V1.8064H30.7099H28.9034V4.51607V7.22575H28.0002H27.097V9.0322V10.8387H26.1937H25.2905V11.7419V12.6451H24.3873H23.4841V14.4516V16.258H22.5808H21.6776V14.4516V12.6451H20.7744H19.8712V11.7419V10.8387H20.7744H21.6776V9.93543V9.0322H22.5808H23.4841V8.12898V7.22575H24.3873H25.2905V6.32253V5.4193H26.1937H27.097V3.61285V1.8064H25.2905H23.4841V2.70962V3.61285H21.6776H19.8712V2.70962V1.8064H18.9679H18.0647V2.70962ZM41.5486 8.12898V14.4516H47.8712H54.1937V8.12898V1.8064H47.8712H41.5486V8.12898ZM3.61309 8.12898V12.6451H8.12922H12.6453V8.12898V3.61285H8.12922H3.61309V8.12898ZM43.355 8.12898V12.6451H47.8712H52.3873V8.12898V3.61285H47.8712H43.355V8.12898ZM5.41954 8.12898V10.8387H8.12922H10.8389V8.12898V5.4193H8.12922H5.41954V8.12898ZM21.6776 6.32253V7.22575H22.5808H23.4841V6.32253V5.4193H22.5808H21.6776V6.32253ZM45.1615 8.12898V10.8387H47.8712H50.5808V8.12898V5.4193H47.8712H45.1615V8.12898ZM18.0647 13.5483V14.4516H18.9679H19.8712V13.5483V12.6451H18.9679H18.0647V13.5483ZM25.2905 13.5483V14.4516H26.1937H27.097V13.5483V12.6451H26.1937H25.2905V13.5483ZM28.9034 13.5483V14.4516H29.8066H30.7099V15.3548V16.258H31.6131H32.5163V15.3548V14.4516H31.6131H30.7099V13.5483V12.6451H29.8066H28.9034V13.5483ZM36.1292 13.5483V14.4516H37.0324H37.9357V13.5483V12.6451H37.0324H36.1292V13.5483ZM18.0647 18.0645V19.8709H17.1615H16.2583V18.9677V18.0645H12.6453H9.03245V19.8709V21.6774H9.93567H10.8389V20.7741V19.8709H12.6453H14.4518V20.7741V21.6774H13.5486H12.6453V22.5806V23.4838H13.5486H14.4518V24.387V25.2903H13.5486H12.6453V26.1935V27.0967H13.5486H14.4518V26.1935V25.2903H15.355H16.2583V26.1935V27.0967H18.9679H21.6776V26.1935V25.2903H22.5808H23.4841V24.387V23.4838H24.3873H25.2905V21.6774V19.8709H26.1937H27.097V18.9677V18.0645H28.0002H28.9034V17.1612V16.258H26.1937H23.4841V18.0645V19.8709H21.6776H19.8712V18.0645V16.258H18.9679H18.0647V18.0645ZM48.7744 17.1612V18.0645H47.8712H46.9679V18.9677V19.8709H47.8712H48.7744V20.7741V21.6774H49.6776H50.5808V23.4838V25.2903H51.4841H52.3873V26.1935V27.0967H51.4841H50.5808V29.8064V32.5161H49.6776H48.7744V27.9999V23.4838H47.8712H46.9679V22.5806V21.6774H46.0647H45.1615V22.5806V23.4838H46.0647H46.9679V28.9032V34.3225H48.7744H50.5808V36.129V37.9354H51.4841H52.3873V37.0322V36.129H53.2905H54.1937V33.4193V30.7096H53.2905H52.3873V29.8064V28.9032H53.2905H54.1937V26.1935V23.4838H53.2905H52.3873V22.5806V21.6774H53.2905H54.1937V19.8709V18.0645H53.2905H52.3873V18.9677V19.8709H50.5808H48.7744V18.9677V18.0645H49.6776H50.5808V17.1612V16.258H49.6776H48.7744V17.1612ZM3.61309 18.9677V19.8709H5.41954H7.226V18.9677V18.0645H5.41954H3.61309V18.9677ZM18.0647 20.7741V21.6774H17.1615H16.2583V22.5806V23.4838H17.1615H18.0647V22.5806V21.6774H18.9679H19.8712V20.7741V19.8709H18.9679H18.0647V20.7741ZM3.61309 22.5806V23.4838H4.51632H5.41954V22.5806V21.6774H4.51632H3.61309V22.5806ZM21.6776 22.5806V23.4838H22.5808H23.4841V22.5806V21.6774H22.5808H21.6776V22.5806ZM30.7099 24.387V25.2903H31.6131H32.5163V26.1935V27.0967H33.4195H34.3228V27.9999V28.9032H35.226H36.1292V29.8064V30.7096H35.226H34.3228V31.6128V32.5161H35.226H36.1292V34.3225V36.129H35.226H34.3228V35.2257V34.3225H33.4195H32.5163V32.5161V30.7096H31.6131H30.7099V28.9032V27.0967H29.8066H28.9034V26.1935V25.2903H27.097H25.2905V26.1935V27.0967H26.1937H27.097V27.9999V28.9032H28.0002H28.9034V30.7096V32.5161H28.0002H27.097V31.6128V30.7096H25.2905H23.4841V32.5161V34.3225H21.6776H19.8712V33.4193V32.5161H18.0647H16.2583V33.4193V34.3225H15.355H14.4518V35.2257V36.129H12.6453H10.8389V37.0322V37.9354H14.4518H18.0647V37.0322V36.129H17.1615H16.2583V35.2257V34.3225H18.0647H19.8712V36.129V37.9354H20.7744H21.6776V38.8387V39.7419H20.7744H19.8712V40.6451V41.5483H18.9679H18.0647V44.258V46.9677H18.9679H19.8712V45.1612V43.3548H20.7744H21.6776V44.258V45.1612H22.5808H23.4841V44.258V43.3548H22.5808H21.6776V41.5483V39.7419H22.5808H23.4841V38.8387V37.9354H24.3873H25.2905V38.8387V39.7419H26.1937H27.097V40.6451V41.5483H26.1937H25.2905V42.4516V43.3548H26.1937H27.097V42.4516V41.5483H28.0002H28.9034V42.4516V43.3548H29.8066H30.7099V42.4516V41.5483H32.5163H34.3228V42.4516V43.3548H35.226H36.1292V41.5483V39.7419H37.0324H37.9357V37.9354V36.129H38.8389H39.7421V37.0322V37.9354H40.6453H41.5486V35.2257V32.5161H40.6453H39.7421V30.7096V28.9032H38.8389H37.9357V26.1935V23.4838H37.0324H36.1292V24.387V25.2903H34.3228H32.5163V24.387V23.4838H31.6131H30.7099V24.387ZM41.5486 27.9999V28.9032H42.4518H43.355V27.9999V27.0967H42.4518H41.5486V27.9999ZM37.9357 33.4193V34.3225H38.8389H39.7421V33.4193V32.5161H38.8389H37.9357V33.4193ZM50.5808 33.4193V34.3225H51.4841H52.3873V33.4193V32.5161H51.4841H50.5808V33.4193ZM3.61309 35.2257V36.129H4.51632H5.41954V35.2257V34.3225H4.51632H3.61309V35.2257ZM25.2905 35.2257V36.129H26.1937H27.097V35.2257V34.3225H26.1937H25.2905V35.2257ZM30.7099 36.129V37.9354H31.6131H32.5163V38.8387V39.7419H34.3228H36.1292V38.8387V37.9354H35.226H34.3228V37.0322V36.129H33.4195H32.5163V35.2257V34.3225H31.6131H30.7099V36.129ZM21.6776 37.0322V37.9354H22.5808H23.4841V37.0322V36.129H22.5808H21.6776V37.0322ZM39.7421 42.4516V45.1612H42.4518H45.1615V42.4516V39.7419H42.4518H39.7421V42.4516ZM1.80664 47.8709V54.1935H8.12922H14.4518V47.8709V41.5483H8.12922H1.80664V47.8709ZM41.5486 42.4516V43.3548H42.4518H43.355V42.4516V41.5483H42.4518H41.5486V42.4516ZM3.61309 47.8709V52.387H8.12922H12.6453V47.8709V43.3548H8.12922H3.61309V47.8709ZM5.41954 47.8709V50.5806H8.12922H10.8389V47.8709V45.1612H8.12922H5.41954V47.8709Z" fill="black"/>
</svg>
