<svg width="144" height="50" viewBox="0 0 144 50" fill="none" xmlns="http://www.w3.org/2000/svg">
<path d="M141.588 23.7195C142.125 23.6725 142.501 23.9878 142.555 24.6021C142.622 25.37 140.381 29.8217 139.488 30.6736C139.348 30.8406 138.974 30.9893 138.667 31.0162C137.822 31.0901 137.488 30.8098 136.955 29.5798C136.817 29.3211 136.817 29.3211 136.616 29.6868C135.784 31.2297 134.686 31.9448 133.661 31.725C132.789 31.4918 132.345 30.8343 132.263 29.4487C132.148 28.1433 132.33 27.1216 132.983 25.749C133.64 24.4148 135.29 22.4909 136.283 21.901C136.762 21.627 137.305 21.1927 137.515 20.9422C138.149 20.229 139.007 20.3087 139.391 21.1649C139.443 21.3151 139.357 22.0964 139.194 22.8844C138.832 24.5022 138.7 26.5256 138.844 27.2867C138.926 27.7825 138.961 27.7408 139.681 26.2463C140.738 24.1807 141.05 23.7665 141.588 23.7195ZM135.815 26.275C136.227 25.2331 136.533 24.3165 136.527 24.2397C136.503 23.9709 135.669 25.0498 135.104 26.1051C134.538 27.1605 134.147 28.4327 134.197 29.0087C134.251 29.623 135.026 28.3171 135.815 26.275Z" fill="black"/>
<path d="M130.04 28.3667C131.967 26.9601 132.812 26.8862 132.919 28.1148C132.973 28.7291 132.546 29.1533 130.692 30.5148C128.694 32.005 127.272 32.5549 126.212 32.3769C125.581 32.2386 124.938 31.5212 124.627 30.6199C124.309 29.6418 124.275 27.4783 124.558 26.2929C125.279 23.483 127.288 21.6823 129.045 22.3024C130.244 22.7391 130.839 25.1243 129.819 25.407C129.219 25.6143 128.811 25.3792 128.565 24.7817C128.271 24.0723 128.118 24.0858 127.515 24.7188C126.601 25.766 126.097 28.4022 126.56 29.7157C126.764 30.2782 126.844 30.3099 127.106 30.2096C127.815 29.9154 128.658 29.3774 130.04 28.3667Z" fill="black"/>
<path d="M124.016 25.9148C124.63 25.861 125.044 26.173 125.095 26.7489C125.125 27.0944 124.96 27.4184 124.466 27.9645C123.555 29.0501 120.482 31.9497 119.681 32.5227C118.768 33.1442 117.472 33.3736 116.786 33.0468C116.097 32.6816 115.794 32.3211 115.458 31.5768C115.077 30.759 114.906 28.8009 115.109 27.5838C115.43 25.5053 116.557 23.3562 117.719 22.4808C118.226 22.0883 119.102 21.9342 119.625 22.1593C120.029 22.3561 120.438 23.0553 120.489 23.6312C120.637 25.3206 119.288 28.9204 117.95 30.4303C117.211 31.2687 117.832 31.2917 118.882 30.4648C119.277 30.1207 120.495 29.0083 121.56 27.9093C123.163 26.3376 123.632 25.9483 124.016 25.9148ZM117.237 27.591C117.138 28.2188 117.408 27.7696 117.816 26.6893C118.041 26.1666 118.221 25.5706 118.278 25.3335C118.324 24.9812 118.324 24.9812 118.118 25.2702C117.841 25.6426 117.337 26.9633 117.237 27.591Z" fill="black"/>
<path d="M115.209 24.4414C116.004 24.6813 116.133 25.7146 115.437 26.1624C115.291 26.2526 114.802 26.4114 114.344 26.4901C113.206 26.7445 112.433 27.199 111.848 28.0239C111.185 28.8556 110.91 29.6921 110.614 31.6137C110.311 33.4585 110.076 33.866 109.423 33.9231C109.155 33.9466 108.844 33.9351 108.761 33.865C108.639 33.7983 108.465 33.5814 108.368 33.3577C108.184 33.0256 108.277 32.3211 108.727 29.4963C108.988 27.6164 109.231 25.9703 109.217 25.8167C109.2 25.6248 109.082 25.5965 108.624 25.6752C107.179 25.9564 107.203 24.0199 108.657 23.3898C109.701 22.9502 110.76 23.5539 111.063 24.8041C111.173 25.1814 111.239 25.4851 111.277 25.4818C111.277 25.4818 111.609 25.298 111.98 25.1108C112.938 24.5628 114.572 24.2263 115.209 24.4414Z" fill="black"/>
<path d="M107.772 27.9935C108.526 28.6625 108.195 29.7361 107.197 29.8234C106.889 29.8503 105.943 30.0878 105.073 30.3187L103.529 30.8019L102.916 31.7455C102.273 32.8075 101.202 33.8297 100.209 34.4195C99.3215 34.8841 97.7857 35.0185 96.9459 34.7051C96.1828 34.3849 95.3943 33.332 95.1601 32.424C94.9226 31.4776 95.1021 29.9917 95.5354 28.7545C96.1589 27.0364 97.6788 25.3946 98.4668 25.5578C98.6271 25.6211 99.0744 25.4272 99.4416 25.2017C99.9906 24.8442 100.406 24.7304 101.097 24.67C102.902 24.5121 103.862 25.3179 104.033 27.276C104.087 27.8903 104.169 28.386 104.246 28.3793C104.284 28.3759 104.735 28.2205 105.262 28.0582C106.614 27.5918 107.309 27.5697 107.772 27.9935ZM100.103 31.8755L100.568 31.4479L99.6517 31.1412C98.5781 30.8096 98.0387 30.3925 97.7028 29.6481L97.4604 29.089L97.2838 29.7235C96.9838 30.7169 96.9776 31.5299 97.2233 32.1274C97.5659 32.9486 98.1202 33.0935 99.0815 32.5838C99.3786 32.4418 99.8125 32.0943 100.103 31.8755ZM101.954 28.2703C102.14 26.8613 101.713 26.3958 100.751 26.9054C100.16 27.2279 99.67 27.8125 99.6018 28.3601C99.4953 28.911 100.025 29.2129 101.061 29.1222L101.868 29.0516L101.954 28.2703Z" fill="black"/>
<path d="M91.2859 25.3737C90.7618 25.5743 89.3715 26.0441 88.163 26.382C86.9963 26.7549 85.9832 27.1143 85.9165 27.2362C85.8181 27.4383 84.3456 36.6974 84.1478 38.4169C83.9717 39.9412 83.7533 40.5406 83.3094 40.7729C82.2646 41.2125 81.7333 40.4465 81.5452 38.2964C81.3706 36.3 80.8129 33.0216 80.3882 31.7047C80.2159 31.0621 79.808 29.9371 79.4721 29.1928C78.506 26.9947 78.7095 26.6674 81.9644 25.841L84.0842 25.3074L84.1907 24.7564C85.5442 17.6743 86.2478 12.8928 85.9406 12.9197C85.5567 12.9533 81.9649 17.4458 81.126 18.9119C80.9609 19.2359 80.8059 19.675 80.8227 19.867C80.8899 20.6348 79.8451 21.0744 79.2188 20.5489C78.8012 20.1986 78.7441 19.5459 79.0609 18.7444C79.6311 17.3018 82.8807 12.8779 84.2806 11.6335C85.4286 10.6045 86.1379 10.3104 86.901 10.6305C87.6991 10.9088 87.9314 11.3528 88.0456 12.6581C88.1833 14.2323 87.6827 17.7967 86.5707 23.6584L86.3542 24.7219L86.9968 24.5496C88.3204 24.2017 90.9826 23.2337 91.832 22.7725L92.7165 22.2696L92.9364 21.2445C93.927 16.2058 94.2001 14.9052 94.8048 12.531C95.5194 9.64433 95.7829 9.11834 96.6276 9.04444C96.9347 9.01757 97.1785 9.15099 97.4324 9.39959C97.9018 9.90015 97.8869 10.1723 97.2946 14.0155C96.4427 19.3128 95.9896 21.2095 95.0456 22.8009C94.7788 23.2885 94.6055 23.9613 94.3943 25.5273C93.6845 31.1217 93.7545 34.1333 94.8242 39.7268C94.9197 40.3761 94.8981 40.5714 94.6912 40.8603C94.3375 41.2395 93.6531 41.3767 93.2423 41.1032C92.7931 40.8329 92.594 39.8832 92.1597 36.2459C91.722 32.5701 91.7408 30.1312 92.108 26.8106C92.2159 25.834 92.299 25.0143 92.299 25.0143C92.2572 24.9792 91.8066 25.1347 91.2859 25.3737ZM83.2903 29.942L83.633 27.6681L82.7984 27.8572C81.5449 28.1216 81.3596 28.2152 81.5367 28.4705C81.7723 28.9529 82.4077 30.909 82.5901 31.6668C82.6621 32.0474 82.7657 32.3478 82.8392 32.3027C82.8742 32.261 83.0907 31.1975 83.2903 29.942Z" fill="black"/>
<path d="M72.5592 29.3719C72.9767 29.7223 73.0338 30.375 72.6451 30.7958C72.4699 31.0046 71.7356 31.4557 70.9912 31.7917C70.2502 32.166 69.324 32.6339 68.9184 32.8628L68.1424 33.2789L68.2163 34.1236C68.3977 36.1968 67.6288 37.5795 66.2467 37.7004C65.8243 37.7373 65.3151 37.6658 65.0296 37.4974C64.3851 37.2056 63.8706 36.6316 63.5831 35.999C63.1402 34.9159 63.5769 33.717 64.7834 32.9151L65.5494 32.3838L65.308 30.5092C65.0263 28.1739 65.166 27.1172 65.9718 26.1568C66.4273 25.6141 66.5741 25.5238 67.2652 25.4634C67.8795 25.4096 68.0782 25.4696 68.454 25.7849C69.0769 26.2721 69.229 26.6843 69.3197 27.7209C69.4776 29.5255 68.954 30.6158 67.9457 30.588C67.52 30.5865 67.4465 30.6316 67.4667 30.862C67.4801 31.0156 67.5286 31.1274 67.5286 31.1274C67.567 31.124 68.3848 30.743 69.3494 30.2717C71.464 29.2356 72.1032 29.0249 72.5592 29.3719ZM66.0418 35.3584C66.1118 35.2749 66.1301 35.0412 66.1166 34.8876C66.0898 34.5804 65.8944 34.5588 65.6526 34.8895C65.5158 35.0949 65.5259 35.2101 65.6929 35.3502C65.8632 35.5287 65.9434 35.5604 66.0418 35.3584ZM67.2949 28.0142C67.0698 28.5368 67.0986 29.308 67.3088 29.0575C67.3789 28.974 67.4221 28.5833 67.4687 28.2311L67.485 27.5333L67.2949 28.0142Z" fill="black"/>
<path d="M63.9929 28.9221C64.7877 29.162 64.9167 30.1953 64.2209 30.6431C64.074 30.7333 63.585 30.8921 63.1276 30.9708C61.9892 31.2252 61.2165 31.6797 60.631 32.5046C59.9687 33.3363 59.6937 34.1728 59.3976 36.0944C59.0947 37.9393 58.8596 38.3467 58.2069 38.4038C57.9381 38.4273 57.6276 38.4158 57.5441 38.3457C57.4222 38.279 57.2485 38.0621 57.1515 37.8385C56.9677 37.5063 57.0608 36.8018 57.5101 33.977C57.7712 32.0972 58.014 30.451 58.0006 30.2975C57.9838 30.1055 57.8653 30.0772 57.4079 30.1559C55.9624 30.4371 55.9864 28.5006 57.4401 27.8705C58.4849 27.4309 59.5436 28.0346 59.8464 29.2848C59.9568 29.6621 60.022 29.9659 60.0604 29.9625C60.0604 29.9625 60.3925 29.7787 60.763 29.5915C61.721 29.0435 63.3551 28.7071 63.9929 28.9221Z" fill="black"/>
<path d="M55.9319 32.6064C56.4694 32.5594 56.8485 32.9131 56.9023 33.5274C56.9359 33.9113 56.7074 34.3956 55.8618 35.7849C54.6408 37.7487 54.5708 37.8322 53.6896 38.3736C52.8786 38.8314 52.0238 38.7901 51.3174 38.2329L50.8197 37.8509L50.431 38.2718C50.0105 38.7728 49.2729 39.1856 48.7738 39.2292C48.5818 39.246 48.1878 39.1644 47.9056 39.0344C46.9856 38.6893 46.4625 37.5744 46.3046 35.7699C46.1736 34.2726 46.225 33.533 46.6896 31.3259C46.9775 29.7532 47.3178 29.2205 48.0089 29.16C48.8536 29.0861 49.298 29.7436 48.9011 30.5134C48.3007 31.6105 48.0674 35.577 48.4753 36.702L48.6692 37.1493L49.0829 36.5714C49.8085 35.5794 50.2136 34.4608 50.6148 32.4139C51.1874 29.2301 51.5143 28.5438 52.3973 28.4666C52.9732 28.4162 53.1786 28.553 53.4527 29.0319C53.6916 29.5526 53.4205 31.3173 52.8205 33.3042C52.3656 34.7367 52.2643 35.7902 52.4615 36.2758C52.6588 36.7615 53.0158 36.4208 53.9983 34.826C55.0056 33.0743 55.3944 32.6534 55.9319 32.6064Z" fill="black"/>
<path d="M46.469 33.3568C47.2239 34.0258 46.8923 35.0994 45.8941 35.1867C45.5869 35.2136 44.6405 35.4511 43.7709 35.682L42.227 36.1652L41.6131 37.1087C40.971 38.1708 39.8998 39.193 38.9068 39.7828C38.019 40.2474 36.4832 40.3817 35.6434 40.0683C34.8803 39.7482 34.0918 38.6953 33.8576 37.7873C33.6201 36.8408 33.7996 35.355 34.233 34.1178C34.8564 32.3997 36.3763 30.7579 37.1643 30.9211C37.3246 30.9844 37.7719 30.7905 38.1391 30.565C38.6881 30.2074 39.1037 30.0937 39.7948 30.0332C41.5993 29.8754 42.5596 30.6812 42.7309 32.6392C42.7847 33.2535 42.8667 33.7493 42.9435 33.7426C42.9819 33.7392 43.4326 33.5837 43.96 33.4215C45.312 32.9551 46.0064 32.933 46.469 33.3568ZM38.8003 37.2388L39.2659 36.8112L38.3492 36.5045C37.2756 36.1728 36.7362 35.7558 36.4003 35.0114L36.1579 34.4523L35.9813 35.0868C35.6813 36.0802 35.6751 36.8932 35.9208 37.4907C36.2635 38.3118 36.8178 38.4568 37.779 37.9471C38.0761 37.8051 38.51 37.4576 38.8003 37.2388ZM40.6514 33.6336C40.8377 32.2246 40.41 31.759 39.4488 32.2687C38.858 32.5912 38.3675 33.1757 38.2993 33.7233C38.1928 34.2743 38.7221 34.5762 39.7588 34.4855L40.565 34.4149L40.6514 33.6336Z" fill="black"/>
<path d="M32.985 26.0253C33.5422 25.3189 34.5841 25.7306 34.5462 26.6238C34.5279 26.8575 34.18 28.6289 33.807 30.5572C33.0545 34.3371 32.587 37.3956 32.6542 38.1635C32.6911 38.5858 32.7713 38.6175 33.0784 38.5906C33.5775 38.5469 34.1203 39.0024 34.164 39.5015C34.2211 40.1542 33.7522 40.5434 32.7924 40.6274C32.0245 40.6946 31.8676 40.6696 31.3665 40.2492C30.615 39.6186 30.4777 38.9342 30.6304 37.1412C30.8243 34.4935 32.5295 26.5681 32.985 26.0253Z" fill="black"/>
<path d="M30.2433 34.1186C30.8576 34.0649 31.2718 34.3768 31.3222 34.9527C31.3524 35.2983 31.1873 35.6222 30.6935 36.1684C29.7826 37.2539 26.7091 40.1536 25.9081 40.7266C24.9953 41.3481 23.7 41.5775 23.0137 41.2506C22.3241 40.8854 22.0217 40.525 21.6858 39.7806C21.3047 38.9628 21.1334 37.0048 21.3364 35.7877C21.6575 33.7091 22.7849 31.5601 23.9463 30.6847C24.4536 30.2921 25.3299 30.1381 25.8526 30.3632C26.2567 30.5599 26.666 31.2592 26.7164 31.8351C26.8642 33.5244 25.5156 37.1243 24.1775 38.6341C23.4385 39.4725 24.0595 39.4956 25.1091 38.6687C25.5045 38.3246 26.7226 37.2121 27.7871 36.1131C29.3905 34.5414 29.8594 34.1522 30.2433 34.1186ZM23.4649 35.7949C23.3651 36.4226 23.6353 35.9734 24.0437 34.8931C24.2688 34.3705 24.4488 33.7744 24.5054 33.5374C24.552 33.1851 24.552 33.1851 24.3451 33.474C24.0682 33.8464 23.5647 35.1672 23.4649 35.7949Z" fill="black"/>
<path d="M21.1743 14.7559C21.4944 13.9928 22.2973 13.8839 22.7801 14.538C23.1242 14.9335 23.1448 16.0536 22.9749 19.8599C22.7704 24.5977 22.2333 28.6295 21.2576 33.396C19.644 41.0426 17.5016 46.1821 15.4139 47.5253C14.7146 47.9347 13.678 48.0254 13.0719 47.7302C12.3021 47.3333 11.8678 46.791 11.3797 45.6344C10.7328 43.9888 10.4487 40.2996 10.7386 36.096C11.2652 27.9642 11.27 27.5769 11.0833 25.0011C10.7743 21.4689 10.3131 20.6194 8.85415 20.7471C7.47197 20.868 5.66505 22.767 4.71478 25.1714C4.1379 26.5373 4.00014 28.0582 4.36584 28.2583C4.64803 28.3884 4.65186 29.3165 4.40326 29.5704C4.04955 29.9495 3.2716 29.9015 2.85071 29.5128C0.986719 27.6641 3.40895 21.3009 6.79002 19.2641C8.5907 18.1781 10.6592 18.384 11.7918 19.8324C12.7022 20.9521 12.9363 21.8601 13.1614 24.4325C13.3865 27.0048 13.3553 27.9748 12.953 34.4321C12.6914 38.5172 12.6885 39.3686 12.8483 41.6372C13.0364 43.7872 13.1285 44.3981 13.416 45.0307C13.8455 45.9603 14.1594 46.0102 14.8567 45.1368C16.6085 43.0491 18.5484 36.9215 19.8932 29.2985C20.4591 26.0379 20.8042 22.0229 20.9621 17.6373C20.9914 16.2033 21.1109 14.9162 21.1743 14.7559Z" fill="black"/>
</svg>
